<?xml version="1.0" encoding="utf-8"?>
<!-- Generator: Adobe Illustrator 25.4.1, SVG Export Plug-In . SVG Version: 6.00 Build 0)  -->
<svg version="1.1" id="Layer_1" xmlns="http://www.w3.org/2000/svg" xmlns:xlink="http://www.w3.org/1999/xlink" x="0px" y="0px"
	 viewBox="0 0 971.57 220.23" style="enable-background:new 0 0 971.57 220.23;" xml:space="preserve">
<style type="text/css">
	.st0{fill:url(#SVGID_1_);}
</style>
<linearGradient id="SVGID_1_" gradientUnits="userSpaceOnUse" x1="35.7854" y1="110.1174" x2="935.7854" y2="110.1174">
	<stop  offset="0" style="stop-color:#66BC46"/>
	<stop  offset="1" style="stop-color:#A5CE3A"/>
</linearGradient>
<path class="st0" d="M323.54,54.49c6.03,10.96,9.04,23.29,9.04,36.99c0,13.7-3.01,26.02-9.04,36.98
	c-6.03,10.96-14.38,19.5-25.07,25.62c-10.65,6.1-22.7,9.15-36.16,9.17v-20.82c9.44-0.02,17.66-2.11,24.66-6.29
	c7.03-4.2,12.47-10.13,16.3-17.81c3.84-7.67,5.75-16.62,5.75-26.85c0-10.23-1.92-19.18-5.75-26.85c-3.83-7.67-9.27-13.61-16.3-17.81
	c-7.03-4.2-15.3-6.3-24.79-6.3c-9.31,0-17.49,2.1-24.52,6.3c-7.03,4.2-12.47,10.14-16.3,17.81c-0.75,1.51-1.37,3.1-1.98,4.71h-24.48
	c1.5-5.18,3.43-10.16,6.05-14.85c6.12-10.96,14.52-19.49,25.21-25.62c10.68-6.12,22.69-9.18,36.03-9.18
	c13.51,0,25.62,3.06,36.3,9.18C309.16,35,317.52,43.54,323.54,54.49z M444.04,87.65c-7.22-2.56-16.67-5.02-28.35-7.4
	c-8.4-1.64-15.03-3.19-19.86-4.65c-4.84-1.46-8.81-3.51-11.92-6.16c-3.11-2.65-4.66-6.16-4.66-10.55c0-5.66,2.69-10.14,8.08-13.42
	c5.39-3.29,12.92-4.93,22.6-4.93c0.1,0,0.18,0.01,0.27,0.01V19.7c-10.78,0-20.32,1.64-28.63,4.93c-8.31,3.29-14.75,7.85-19.31,13.7
	c-4.57,5.85-6.85,12.42-6.85,19.72c0,9.32,2.6,16.76,7.81,22.33c5.2,5.58,11.41,9.64,18.63,12.19c7.21,2.56,16.57,5.12,28.08,7.67
	c8.4,1.83,15.02,3.47,19.86,4.93c4.84,1.47,8.86,3.56,12.05,6.3c3.19,2.74,4.8,6.21,4.8,10.41c0,6.57-3.01,11.64-9.04,15.2
	c-6.03,3.56-14.79,5.34-26.3,5.34c-11.33,0-20.23-2.05-26.71-6.16c-6.48-4.11-10.18-10.09-11.1-17.94h-23.56
	c0.37,9.13,3.1,17.03,8.22,23.7c5.11,6.67,12.28,11.88,21.51,15.61c9.22,3.74,19.77,5.62,31.64,5.62c12.05,0,22.56-1.69,31.51-5.07
	c8.95-3.38,15.8-8.17,20.55-14.38c4.75-6.21,7.12-13.52,7.12-21.92c0-9.32-2.6-16.72-7.81-22.19
	C457.47,94.22,451.26,90.21,444.04,87.65z M82.5,46.96c7.21-4.29,15.39-6.44,24.52-6.44c9.68,0,18.4,2.7,26.16,8.08
	c7.76,5.39,13.19,12.38,16.3,20.96h23.29c-2.01-9.68-6.26-18.26-12.74-25.75c-6.49-7.49-14.29-13.37-23.42-17.67
	c-9.14-4.29-19-6.44-29.59-6.44c-13.15,0-25.16,3.15-36.03,9.45c-10.87,6.3-19.45,14.89-25.75,25.75
	c-6.3,10.87-9.45,23.06-9.45,36.58c0,13.52,3.15,25.71,9.45,36.58c6.3,10.86,14.89,19.45,25.75,25.75
	c10.87,6.3,22.88,9.45,36.03,9.45c10.59,0,20.45-2.15,29.59-6.44c9.13-4.29,16.94-10.18,23.42-17.67
	c6.48-7.49,10.73-16.07,12.74-25.75h-23.29c-3.11,8.59-8.54,15.58-16.3,20.96c-7.76,5.39-16.49,8.08-26.16,8.08
	c-9.13,0-17.31-2.14-24.52-6.44c-7.22-4.29-12.83-10.32-16.85-18.08c-4.02-7.76-6.03-16.57-6.03-26.44c0-9.86,2.01-18.67,6.03-26.44
	C69.66,57.28,75.28,51.26,82.5,46.96z M803.32,142.42c-9.31,0-17.48-2.09-24.5-6.3c-7.03-4.2-12.46-10.13-16.29-17.79
	c-3.83-7.67-5.75-16.61-5.75-26.83s1.92-19.17,5.75-26.83c3.83-7.66,9.26-13.6,16.29-17.8c7.02-4.2,15.19-6.3,24.5-6.3
	c9.49,0,17.75,2.1,24.78,6.3c7.02,4.2,12.46,10.13,16.29,17.8c1.08,2.17,1.89,4.52,2.6,6.93h23.96c-1.44-5.99-3.38-11.75-6.31-17.06
	c-6.02-10.95-14.37-19.48-25.05-25.6c-10.68-6.11-22.77-9.17-36.28-9.17c-13.32,0-25.32,3.06-36,9.17
	c-10.68,6.12-19.07,14.65-25.19,25.6c-6.12,10.95-9.17,23.27-9.17,36.96c0,13.69,3.06,26.01,9.17,36.96
	c6.11,10.95,14.51,19.49,25.19,25.6c10.68,6.12,22.68,9.17,36,9.17c8.98,0,17.28-1.47,25-4.18l-10.8-18.71
	C813.12,141.61,808.46,142.42,803.32,142.42z M935.79,88.66l-64.07,111.87L807.64,88.66H935.79z M871.71,157.53l27.21-47.5h-54.41
	L871.71,157.53z M681.94,26.41c-7.4-4.47-16.12-6.71-26.16-6.71c-10.05,0-19.22,2.37-27.53,7.12c-8.31,4.75-15.12,11.6-20.41,20.54
	h-1.37c-3.47-8.58-9.04-15.34-16.71-20.27c-7.67-4.93-16.44-7.39-26.3-7.39c-9.13,0-17.53,2.19-25.21,6.57
	c-7.67,4.38-13.43,10.23-17.26,17.53h-1.37V22.44h-21.64v21.61v116.47h22.74V82.72c0-13.15,3.51-23.47,10.55-30.96
	c7.03-7.49,16.03-11.23,26.99-11.23c10.23,0,18.12,3.33,23.7,10c5.57,6.67,8.36,16.4,8.36,29.18v80.82h22.74V82.72
	c0-13.15,3.52-23.47,10.55-30.96c7.03-7.49,16.12-11.23,27.26-11.23c10.23,0,18.08,3.33,23.56,10c5.48,6.67,8.22,16.4,8.22,29.18
	v80.82h22.74V77.24c0-12.23-2.06-22.65-6.17-31.23C695.09,37.42,689.34,30.89,681.94,26.41z"/>
</svg> 