<?xml version="1.0" encoding="utf-8"?>
<!-- Generator: Adobe Illustrator 25.4.1, SVG Export Plug-In . SVG Version: 6.00 Build 0)  -->
<svg version="1.1" id="Layer_1" xmlns="http://www.w3.org/2000/svg" xmlns:xlink="http://www.w3.org/1999/xlink" x="0px" y="0px"
	 viewBox="0 0 547.48 500" style="enable-background:new 0 0 547.48 500;" xml:space="preserve">
<style type="text/css">
	.st0{fill:url(#SVGID_1_);}
</style>
<linearGradient id="SVGID_1_" gradientUnits="userSpaceOnUse" x1="35.7088" y1="250" x2="524.2258" y2="250">
	<stop  offset="0" style="stop-color:#66BC46"/>
	<stop  offset="1" style="stop-color:#A5CE3A"/>
</linearGradient>
<path class="st0" d="M205.18,327.73c-22.42,0-42.1-5.04-59.02-15.17c-16.93-10.11-30.01-24.39-39.24-42.85
	c-9.23-18.47-13.85-40.01-13.85-64.63s4.62-46.17,13.85-64.62c9.23-18.46,22.31-32.75,39.24-42.86
	c16.92-10.11,36.6-15.17,59.02-15.17c22.86,0,42.75,5.06,59.68,15.17c16.92,10.12,30,24.4,39.23,42.86
	c2.61,5.22,4.55,10.89,6.27,16.7h57.72c-3.47-14.42-8.14-28.3-15.19-41.1c-14.51-26.37-34.62-46.93-60.33-61.65
	c-25.72-14.72-54.84-22.09-87.38-22.09c-32.09,0-60.99,7.36-86.71,22.09C92.75,69.13,72.52,89.68,57.8,116.06
	c-14.73,26.38-22.09,56.05-22.09,89.03c0,32.97,7.36,62.64,22.09,89.02c14.72,26.38,34.95,46.93,60.67,61.65
	c25.72,14.73,54.62,22.09,86.71,22.09c21.63,0,41.62-3.54,60.22-10.08l-26.02-45.06C228.79,325.76,217.56,327.73,205.18,327.73z
	 M215.58,198.24L369.9,467.68l154.32-269.44H215.58z M304.37,249.71h131.05L369.9,364.13L304.37,249.71z"/>
</svg>
